REM DIRINDEX 1\6,1\2\7,1\2\8,1\2\9,1\3\10,1\3\11,1\4\12,1\4\13,1\4\14,1\5\15,1\5\16,1\5\17
REM DIRNAME folder01,folder02,folder03,folder04,folder05,folder06,folder07,folder08,folder09,folder10,folder11,folder12,folder13,folder14,folder15,folder16,folder17
TITLE ""
FILE "3Q_j_0901-0916.mp3" MP3
  TRACK 01 AUDIO
    TITLE "6:cjc041_0001"
    INDEX 01 00:00:00
  TRACK 02 AUDIO
    TITLE "0:"
    INDEX 01 00:06:37
  TRACK 03 AUDIO
    TITLE "12:cjc041_0002"
    INDEX 01 00:07:51
  TRACK 04 AUDIO
    TITLE "0:"
    INDEX 01 00:08:66
  TRACK 05 AUDIO
    TITLE "13:cjc041_0003"
    INDEX 01 00:09:45
  TRACK 06 AUDIO
    TITLE "0:"
    INDEX 01 00:11:33
  TRACK 07 AUDIO
    TITLE "14:cjc041_0004"
    INDEX 01 00:12:12
  TRACK 08 AUDIO
    TITLE "0:"
    INDEX 01 00:15:62
  TRACK 09 AUDIO
    TITLE "12:cjc041_0005"
    INDEX 01 00:16:40
  TRACK 10 AUDIO
    TITLE "0:"
    INDEX 01 00:18:05
  TRACK 11 AUDIO
    TITLE "13:cjc041_0006"
    INDEX 01 00:18:64
  TRACK 12 AUDIO
    TITLE "0:"
    INDEX 01 00:21:09
  TRACK 13 AUDIO
    TITLE "14:cjc041_0007"
    INDEX 01 00:21:66
  TRACK 14 AUDIO
    TITLE "0:"
    INDEX 01 00:24:18
  TRACK 15 AUDIO
    TITLE "12:cjc041_0008"
    INDEX 01 00:25:01
  TRACK 16 AUDIO
    TITLE "0:"
    INDEX 01 00:26:44
  TRACK 17 AUDIO
    TITLE "13:cjc041_0009"
    INDEX 01 00:27:30
  TRACK 18 AUDIO
    TITLE "0:"
    INDEX 01 00:29:44
  TRACK 19 AUDIO
    TITLE "14:cjc041_0010"
    INDEX 01 00:30:22
  TRACK 20 AUDIO
    TITLE "0:"
    INDEX 01 00:33:32
  TRACK 21 AUDIO
    TITLE "12:cjc041_0011"
    INDEX 01 00:34:14
  TRACK 22 AUDIO
    TITLE "0:"
    INDEX 01 00:35:27
  TRACK 23 AUDIO
    TITLE "13:cjc041_0012"
    INDEX 01 00:36:07
  TRACK 24 AUDIO
    TITLE "0:"
    INDEX 01 00:38:16
  TRACK 25 AUDIO
    TITLE "14:cjc041_0013"
    INDEX 01 00:38:73
  TRACK 26 AUDIO
    TITLE "0:"
    INDEX 01 00:42:43
  TRACK 27 AUDIO
    TITLE "12:cjc041_0014"
    INDEX 01 00:43:23
  TRACK 28 AUDIO
    TITLE "0:"
    INDEX 01 00:44:54
  TRACK 29 AUDIO
    TITLE "13:cjc041_0015"
    INDEX 01 00:45:32
  TRACK 30 AUDIO
    TITLE "0:"
    INDEX 01 00:47:11
  TRACK 31 AUDIO
    TITLE "14:cjc041_0016"
    INDEX 01 00:47:70
  TRACK 32 AUDIO
    TITLE "0:"
    INDEX 01 00:50:66
  TRACK 33 AUDIO
    TITLE "12:cjc041_0017"
    INDEX 01 00:51:44
  TRACK 34 AUDIO
    TITLE "0:"
    INDEX 01 00:53:11
  TRACK 35 AUDIO
    TITLE "13:cjc041_0018"
    INDEX 01 00:53:60
  TRACK 36 AUDIO
    TITLE "0:"
    INDEX 01 00:55:53
  TRACK 37 AUDIO
    TITLE "14:cjc041_0019"
    INDEX 01 00:56:33
  TRACK 38 AUDIO
    TITLE "0:"
    INDEX 01 01:00:25
  TRACK 39 AUDIO
    TITLE "12:cjc041_0020"
    INDEX 01 01:01:03
  TRACK 40 AUDIO
    TITLE "0:"
    INDEX 01 01:02:38
  TRACK 41 AUDIO
    TITLE "13:cjc041_0021"
    INDEX 01 01:03:16
  TRACK 42 AUDIO
    TITLE "0:"
    INDEX 01 01:05:07
  TRACK 43 AUDIO
    TITLE "14:cjc041_0022"
    INDEX 01 01:05:60
  TRACK 44 AUDIO
    TITLE "0:"
    INDEX 01 01:08:01
  TRACK 45 AUDIO
    TITLE "12:cjc041_0023"
    INDEX 01 01:08:54
  TRACK 46 AUDIO
    TITLE "0:"
    INDEX 01 01:10:20
  TRACK 47 AUDIO
    TITLE "13:cjc041_0024"
    INDEX 01 01:11:05
  TRACK 48 AUDIO
    TITLE "0:"
    INDEX 01 01:12:73
  TRACK 49 AUDIO
    TITLE "14:cjc041_0025"
    INDEX 01 01:13:53
  TRACK 50 AUDIO
    TITLE "0:"
    INDEX 01 01:16:60
  TRACK 51 AUDIO
    TITLE "12:cjc041_0026"
    INDEX 01 01:17:49
  TRACK 52 AUDIO
    TITLE "0:"
    INDEX 01 01:19:30
  TRACK 53 AUDIO
    TITLE "13:cjc041_0027"
    INDEX 01 01:20:12
  TRACK 54 AUDIO
    TITLE "0:"
    INDEX 01 01:22:07
  TRACK 55 AUDIO
    TITLE "14:cjc041_0028"
    INDEX 01 01:22:60
  TRACK 56 AUDIO
    TITLE "0:"
    INDEX 01 01:25:74
  TRACK 57 AUDIO
    TITLE "12:cjc041_0029"
    INDEX 01 01:26:58
  TRACK 58 AUDIO
    TITLE "0:"
    INDEX 01 01:28:37
  TRACK 59 AUDIO
    TITLE "13:cjc041_0030"
    INDEX 01 01:29:11
  TRACK 60 AUDIO
    TITLE "0:"
    INDEX 01 01:30:48
  TRACK 61 AUDIO
    TITLE "14:cjc041_0031"
    INDEX 01 01:31:26
  TRACK 62 AUDIO
    TITLE "0:"
    INDEX 01 01:34:24
  TRACK 63 AUDIO
    TITLE "12:cjc041_0032"
    INDEX 01 01:35:06
  TRACK 64 AUDIO
    TITLE "0:"
    INDEX 01 01:36:54
  TRACK 65 AUDIO
    TITLE "13:cjc041_0033"
    INDEX 01 01:37:38
  TRACK 66 AUDIO
    TITLE "0:"
    INDEX 01 01:38:61
  TRACK 67 AUDIO
    TITLE "14:cjc041_0034"
    INDEX 01 01:39:35
  TRACK 68 AUDIO
    TITLE "0:"
    INDEX 01 01:43:05
  TRACK 69 AUDIO
    TITLE "12:cjc041_0035"
    INDEX 01 01:43:62
  TRACK 70 AUDIO
    TITLE "0:"
    INDEX 01 01:45:28
  TRACK 71 AUDIO
    TITLE "13:cjc041_0036"
    INDEX 01 01:46:10
  TRACK 72 AUDIO
    TITLE "0:"
    INDEX 01 01:48:12
  TRACK 73 AUDIO
    TITLE "14:cjc041_0037"
    INDEX 01 01:48:60
  TRACK 74 AUDIO
    TITLE "0:"
    INDEX 01 01:52:24
  TRACK 75 AUDIO
    TITLE "12:cjc041_0038"
    INDEX 01 01:53:06
  TRACK 76 AUDIO
    TITLE "0:"
    INDEX 01 01:54:74
  TRACK 77 AUDIO
    TITLE "13:cjc041_0039"
    INDEX 01 01:55:56
  TRACK 78 AUDIO
    TITLE "0:"
    INDEX 01 01:57:19
  TRACK 79 AUDIO
    TITLE "14:cjc041_0040"
    INDEX 01 01:57:70
  TRACK 80 AUDIO
    TITLE "0:"
    INDEX 01 02:01:17
  TRACK 81 AUDIO
    TITLE "12:cjc041_0041"
    INDEX 01 02:01:72
  TRACK 82 AUDIO
    TITLE "0:"
    INDEX 01 02:03:43
  TRACK 83 AUDIO
    TITLE "13:cjc041_0042"
    INDEX 01 02:04:23
  TRACK 84 AUDIO
    TITLE "0:"
    INDEX 01 02:05:60
  TRACK 85 AUDIO
    TITLE "14:cjc041_0043"
    INDEX 01 02:06:38
  TRACK 86 AUDIO
    TITLE "0:"
    INDEX 01 02:09:46
  TRACK 87 AUDIO
    TITLE "12:cjc041_0044"
    INDEX 01 02:10:20
  TRACK 88 AUDIO
    TITLE "0:"
    INDEX 01 02:11:64
  TRACK 89 AUDIO
    TITLE "13:cjc041_0045"
    INDEX 01 02:12:42
  TRACK 90 AUDIO
    TITLE "0:"
    INDEX 01 02:14:53
  TRACK 91 AUDIO
    TITLE "14:cjc041_0046"
    INDEX 01 02:15:35
  TRACK 92 AUDIO
    TITLE "0:"
    INDEX 01 02:19:01
  TRACK 93 AUDIO
    TITLE "12:cjc041_0047"
    INDEX 01 02:19:58
  TRACK 94 AUDIO
    TITLE "0:"
    INDEX 01 02:22:47
  TRACK 95 AUDIO
    TITLE "13:cjc041_0048"
    INDEX 01 02:23:34
  TRACK 96 AUDIO
    TITLE "0:"
    INDEX 01 02:26:01
  TRACK 97 AUDIO
    TITLE "14:cjc041_0049"
    INDEX 01 02:26:56
  TRACK 98 AUDIO
    TITLE "0:"
    INDEX 01 02:29:60
